<?xml version="1.0" encoding="us-ascii" standalone="no"?><svg xmlns="http://www.w3.org/2000/svg" xmlns:xlink="http://www.w3.org/1999/xlink" contentStyleType="text/css" height="347px" preserveAspectRatio="none" style="width:1749px;height:347px;background:#FFFFFF;" version="1.1" viewBox="0 0 1749 347" width="1749px" zoomAndPan="magnify"><defs/><g><!--cluster Website--><g id="cluster_Website"><rect fill="none" height="94" rx="2.5" ry="2.5" style="stroke:#181818;stroke-width:1.0;" width="1736" x="7" y="128.5"/><text fill="#000000" font-family="sans-serif" font-size="14" font-weight="bold" lengthAdjust="spacing" textLength="65" x="842.5" y="143.4951">Website</text></g><g id="elem_search"><ellipse cx="1059.9652" cy="185.193" fill="#F1F1F1" rx="78.9652" ry="18.193" style="stroke:#181818;stroke-width:0.5;"/><text fill="#000000" font-family="sans-serif" font-size="14" lengthAdjust="spacing" textLength="116" x="999.9" y="188.6886">Search Products</text></g><g id="elem_view"><ellipse cx="306.7771" cy="184.9554" fill="#F1F1F1" rx="92.7771" ry="20.9554" style="stroke:#181818;stroke-width:0.5;"/><text fill="#000000" font-family="sans-serif" font-size="14" lengthAdjust="spacing" textLength="148" x="232.7771" y="187.8021">View Product Details</text></g><g id="elem_addToCart"><ellipse cx="1464.9626" cy="185.1925" fill="#F1F1F1" rx="66.4626" ry="15.6925" style="stroke:#181818;stroke-width:0.5;"/><text fill="#000000" font-family="sans-serif" font-size="14" lengthAdjust="spacing" textLength="83" x="1420.4626" y="188.9401">Add to Cart</text></g><g id="elem_checkout"><ellipse cx="1269.0638" cy="184.8128" fill="#F1F1F1" rx="94.5638" ry="21.3128" style="stroke:#181818;stroke-width:0.5;"/><text fill="#000000" font-family="sans-serif" font-size="14" lengthAdjust="spacing" textLength="152" x="1193.0638" y="187.6594">Proceed to Checkout</text></g><g id="elem_placeOrder"><ellipse cx="704.9626" cy="185.1925" fill="#F1F1F1" rx="66.4626" ry="15.6925" style="stroke:#181818;stroke-width:0.5;"/><text fill="#000000" font-family="sans-serif" font-size="14" lengthAdjust="spacing" textLength="83" x="660.4626" y="188.9401">Place Order</text></g><g id="elem_manageAccount"><ellipse cx="1646.7839" cy="184.8568" fill="#F1F1F1" rx="79.7839" ry="18.3568" style="stroke:#181818;stroke-width:0.5;"/><text fill="#000000" font-family="sans-serif" font-size="14" lengthAdjust="spacing" textLength="118" x="1586.0356" y="188.2613">Manage Account</text></g><g id="elem_manageInventory"><ellipse cx="518.995" cy="185.199" fill="#F1F1F1" rx="83.995" ry="19.199" style="stroke:#181818;stroke-width:0.5;"/><text fill="#000000" font-family="sans-serif" font-size="14" lengthAdjust="spacing" textLength="128" x="454.7335" y="188.1356">Manage Inventory</text></g><g id="elem_trackOrders"><ellipse cx="876.1952" cy="184.839" fill="#F1F1F1" rx="69.6952" ry="16.339" style="stroke:#181818;stroke-width:0.5;"/><text fill="#000000" font-family="sans-serif" font-size="14" lengthAdjust="spacing" textLength="92" x="827.1952" y="188.5866">Track Orders</text></g><g id="elem_manageListings"><ellipse cx="101.1551" cy="185.031" fill="#F1F1F1" rx="78.1551" ry="18.031" style="stroke:#181818;stroke-width:0.5;"/><text fill="#000000" font-family="sans-serif" font-size="14" lengthAdjust="spacing" textLength="114" x="41.7659" y="188.6166">Manage Listings</text></g><!--entity user--><g id="elem_user"><ellipse cx="1164" cy="14" fill="#F1F1F1" rx="8" ry="8" style="stroke:#181818;stroke-width:0.5;"/><path d="M1164,22 L1164,49 M1151,30 L1177,30 M1164,49 L1151,64 M1164,49 L1177,64 " fill="none" style="stroke:#181818;stroke-width:0.5;"/><text fill="#000000" font-family="sans-serif" font-size="14" lengthAdjust="spacing" textLength="31" x="1148.5" y="78.4951">User</text></g><!--entity database--><g id="elem_database"><path d="M706,295.5 C706,285.5 780,285.5 780,285.5 C780,285.5 854,285.5 854,295.5 L854,320.7969 C854,330.7969 780,330.7969 780,330.7969 C780,330.7969 706,330.7969 706,320.7969 L706,295.5 " fill="#F1F1F1" style="stroke:#181818;stroke-width:0.5;"/><path d="M706,295.5 C706,305.5 780,305.5 780,305.5 C780,305.5 854,305.5 854,295.5 " fill="none" style="stroke:#181818;stroke-width:0.5;"/><text fill="#000000" font-family="sans-serif" font-size="14" lengthAdjust="spacing" textLength="128" x="716" y="322.4951">Product Database</text></g><!--entity userDatabase--><g id="elem_userDatabase"><path d="M1520.5,295.5 C1520.5,285.5 1582,285.5 1582,285.5 C1582,285.5 1643.5,285.5 1643.5,295.5 L1643.5,320.7969 C1643.5,330.7969 1582,330.7969 1582,330.7969 C1582,330.7969 1520.5,330.7969 1520.5,320.7969 L1520.5,295.5 " fill="#F1F1F1" style="stroke:#181818;stroke-width:0.5;"/><path d="M1520.5,295.5 C1520.5,305.5 1582,305.5 1582,305.5 C1582,305.5 1643.5,305.5 1643.5,295.5 " fill="none" style="stroke:#181818;stroke-width:0.5;"/><text fill="#000000" font-family="sans-serif" font-size="14" lengthAdjust="spacing" textLength="103" x="1530.5" y="322.4951">User Database</text></g><!--link user to search--><g id="link_user_search"><path d="M1148.43,65.385 C1128.85,91.646 1095.43,136.481 1075.76,162.862 " fill="none" id="user-to-search" style="stroke:#181818;stroke-width:1.0;"/><polygon fill="#181818" points="1072.72,166.932,1081.303,162.1016,1075.7058,162.9214,1074.886,157.3243,1072.72,166.932" style="stroke:#181818;stroke-width:1.0;"/></g><!--link user to view--><g id="link_user_view"><path d="M1148.43,45.195 C1054.28,49.526 560.427,74.166 417,120.5 C388.083,129.842 358.422,147.528 337.198,161.867 " fill="none" id="user-to-view" style="stroke:#181818;stroke-width:1.0;"/><polygon fill="#181818" points="333.068,164.687,342.7563,162.9161,337.1974,161.8678,338.2457,156.3089,333.068,164.687" style="stroke:#181818;stroke-width:1.0;"/></g><!--link user to addToCart--><g id="link_user_addToCart"><path d="M1179.68,48.2 C1216.38,57.234 1310.11,82.498 1381,120.5 C1404.77,133.24 1429.03,152.38 1445.33,166.315 " fill="none" id="user-to-addToCart" style="stroke:#181818;stroke-width:1.0;"/><polygon fill="#181818" points="1449.3,169.738,1445.1057,160.8269,1445.5168,166.4688,1439.875,166.8799,1449.3,169.738" style="stroke:#181818;stroke-width:1.0;"/></g><!--link user to checkout--><g id="link_user_checkout"><path d="M1179.72,65.385 C1198.62,90.492 1230.29,132.576 1250.39,159.279 " fill="none" id="user-to-checkout" style="stroke:#181818;stroke-width:1.0;"/><polygon fill="#181818" points="1253.52,163.428,1251.309,153.8305,1250.5154,159.4314,1244.9145,158.6378,1253.52,163.428" style="stroke:#181818;stroke-width:1.0;"/></g><!--link user to placeOrder--><g id="link_user_placeOrder"><path d="M1148.24,45.206 C1095.2,48.089 919.195,61.791 789,120.5 C763.958,131.792 739.372,151.706 723.336,166.23 " fill="none" id="user-to-placeOrder" style="stroke:#181818;stroke-width:1.0;"/><polygon fill="#181818" points="719.448,169.798,728.7834,166.6595,723.1318,166.4172,723.3741,160.7655,719.448,169.798" style="stroke:#181818;stroke-width:1.0;"/></g><!--link user to manageAccount--><g id="link_user_manageAccount"><path d="M1179.64,45.465 C1233.12,49.202 1412.92,65.371 1549,120.5 C1575.73,131.328 1603.01,149.727 1621.98,163.942 " fill="none" id="user-to-manageAccount" style="stroke:#181818;stroke-width:1.0;"/><polygon fill="#181818" points="1626.13,167.09,1621.3645,158.4709,1622.142,164.074,1616.5389,164.8516,1626.13,167.09" style="stroke:#181818;stroke-width:1.0;"/></g><!--link search to database--><g id="link_search_database"><path d="M1032.06,201.947 C1005.33,216.853 963.634,239.1972 926,255.5 C902.3,265.7666 875.821,275.582 851.989,283.8385 " fill="none" id="search-to-database" style="stroke:#181818;stroke-width:1.0;"/><polygon fill="#181818" points="847.259,285.4686,857.0713,286.3162,851.9859,283.8386,854.4634,278.7532,847.259,285.4686" style="stroke:#181818;stroke-width:1.0;"/><text fill="#000000" font-family="sans-serif" font-size="13" lengthAdjust="spacing" textLength="99" x="961" y="251.5669">Query Products</text></g><!--link view to database--><g id="link_view_database"><path d="M336.865,204.976 C363.436,220.964 403.882,243.1502 442,255.5 C527.854,283.3155 630.949,296.2567 700.525,302.1803 " fill="none" id="view-to-database" style="stroke:#181818;stroke-width:1.0;"/><polygon fill="#181818" points="705.893,302.6291,697.2567,297.8946,700.9103,302.2134,696.5916,305.8669,705.893,302.6291" style="stroke:#181818;stroke-width:1.0;"/><text fill="#000000" font-family="sans-serif" font-size="13" lengthAdjust="spacing" textLength="124" x="443" y="251.5669">Get Product Details</text></g><!--link addToCart to database--><g id="link_addToCart_database"><path d="M1443.4,199.877 C1426.92,209.849 1403.32,222.837 1381,230.5 C1201.61,292.0887 976.757,304.8694 859.486,307.0434 " fill="none" id="addToCart-to-database" style="stroke:#181818;stroke-width:1.0;"/><polygon fill="#181818" points="854.328,307.1335,863.3963,310.976,859.3272,307.0464,863.2569,302.9773,854.328,307.1335" style="stroke:#181818;stroke-width:1.0;"/><text fill="#000000" font-family="sans-serif" font-size="13" lengthAdjust="spacing" textLength="73" x="1351" y="251.5669">Add to Cart</text></g><!--link checkout to database--><g id="link_checkout_database"><path d="M1225.62,204.202 C1204.75,212.673 1179.26,222.599 1156,230.5 C1056.32,264.3622 936.427,285.5693 859.259,296.8417 " fill="none" id="checkout-to-database" style="stroke:#181818;stroke-width:1.0;"/><polygon fill="#181818" points="854.238,297.5699,863.7194,300.235,859.1861,296.8514,862.5697,292.318,854.238,297.5699" style="stroke:#181818;stroke-width:1.0;"/><text fill="#000000" font-family="sans-serif" font-size="13" lengthAdjust="spacing" textLength="102" x="1128" y="251.5669">Get Cart Details</text></g><!--link checkout to userDatabase--><g id="link_checkout_userDatabase"><path d="M1307.74,204.657 C1328.9,214.005 1355.85,224.57 1381,230.5 C1421.81,240.122 1435.3,225.025 1475,238.5 C1503.39,248.1358 1531.8,266.853 1552.21,282.2901 " fill="none" id="checkout-to-userDatabase" style="stroke:#181818;stroke-width:1.0;"/><polygon fill="#181818" points="1556.18,285.3301,1551.4699,276.6806,1552.2115,282.2886,1546.6034,283.0302,1556.18,285.3301" style="stroke:#181818;stroke-width:1.0;"/><text fill="#000000" font-family="sans-serif" font-size="13" lengthAdjust="spacing" textLength="71" x="1510" y="251.5669">Verify User</text></g><!--link placeOrder to database--><g id="link_placeOrder_database"><path d="M709.185,200.557 C713.753,215.137 721.92,237.8808 733,255.5 C738.759,264.6582 746.226,273.6988 753.505,281.5878 " fill="none" id="placeOrder-to-database" style="stroke:#181818;stroke-width:1.0;"/><polygon fill="#181818" points="757.056,285.3635,753.8033,276.0673,753.6303,281.7215,747.9761,281.5484,757.056,285.3635" style="stroke:#181818;stroke-width:1.0;"/><text fill="#000000" font-family="sans-serif" font-size="13" lengthAdjust="spacing" textLength="74" x="734" y="251.5669">Place Order</text></g><!--link manageAccount to userDatabase--><g id="link_manageAccount_userDatabase"><path d="M1637.55,203.594 C1626.66,223.872 1608.64,257.3995 1596.1,280.7605 " fill="none" id="manageAccount-to-userDatabase" style="stroke:#181818;stroke-width:1.0;"/><polygon fill="#181818" points="1593.66,285.2901,1601.4455,279.258,1596.0281,280.8865,1594.3997,275.4691,1593.66,285.2901" style="stroke:#181818;stroke-width:1.0;"/><text fill="#000000" font-family="sans-serif" font-size="13" lengthAdjust="spacing" textLength="106" x="1619" y="251.5669">Manage Account</text></g><!--link manageInventory to database--><g id="link_manageInventory_database"><path d="M535.364,203.865 C550.666,219.57 574.875,241.9724 600,255.5 C631.105,272.2473 668.243,284.057 700.684,292.103 " fill="none" id="manageInventory-to-database" style="stroke:#181818;stroke-width:1.0;"/><polygon fill="#181818" points="705.849,293.3622,698.0525,287.3443,700.9913,292.1779,696.1577,295.1167,705.849,293.3622" style="stroke:#181818;stroke-width:1.0;"/><text fill="#000000" font-family="sans-serif" font-size="13" lengthAdjust="spacing" textLength="115" x="601" y="251.5669">Manage Inventory</text></g><!--link trackOrders to database--><g id="link_trackOrders_database"><path d="M863.842,201.325 C847.912,221.403 819.745,256.9043 800.492,281.1713 " fill="none" id="trackOrders-to-database" style="stroke:#181818;stroke-width:1.0;"/><polygon fill="#181818" points="797.244,285.265,805.9713,280.7005,800.3516,281.348,799.7041,275.7283,797.244,285.265" style="stroke:#181818;stroke-width:1.0;"/><text fill="#000000" font-family="sans-serif" font-size="13" lengthAdjust="spacing" textLength="82" x="835" y="251.5669">Track Orders</text></g><!--link manageListings to database--><g id="link_manageListings_database"><path d="M131.233,201.801 C149.622,210.996 173.773,222.344 196,230.5 C235.778,245.0968 246.35,247.7136 288,255.5 C432.103,282.4396 602.777,296.3503 700.521,302.6297 " fill="none" id="manageListings-to-database" style="stroke:#181818;stroke-width:1.0;"/><polygon fill="#181818" points="705.697,302.9595,696.9701,298.3942,700.7072,302.6409,696.4604,306.3779,705.697,302.9595" style="stroke:#181818;stroke-width:1.0;"/><text fill="#000000" font-family="sans-serif" font-size="13" lengthAdjust="spacing" textLength="102" x="289" y="251.5669">Manage Listings</text></g><!--SRC=[TL9DIyGm4BtFhnXwqiF-0G_2eY22ekAwdcUJiLksjfAaAqNyxtQI9fk6zLJUnqoIrqVAzGRVB1iaYyFq1J2i77LrorYzyyusZYly0K2yU6KoQe_FfjU3SlPIPgpdHDqs_1qrl6L7JHiinqaGmrfhT3tUa76U9wqtlI0Hfq7570nxLeT-22Or0-zfIJ4-6St6Qr-2FHJraJgg6TTAzKCNXZyzDJEPvxuxSZUzVCnSYHFVnf0wX9F26vmG0MTx7XhhcgwssPf8mI-09aSxibEGAPQPgMGWofdF_uc5IVv99004uMfr7MDFs6USq2dPHAKS4vEbbxXbO11EyKgwunM-36p6r0AGeqlB7Rko2f0kLPgpNa2yvhc5VZPkMnZpa2RpbatpCVfQm-cLvSgiJR1uzxcLot91KPboTLapoEfJUlEgmR93_woDyXy0]--></g></svg>