<?xml version="1.0" encoding="us-ascii" standalone="no"?><svg xmlns="http://www.w3.org/2000/svg" xmlns:xlink="http://www.w3.org/1999/xlink" contentStyleType="text/css" height="276px" preserveAspectRatio="none" style="width:538px;height:276px;background:#FFFFFF;" version="1.1" viewBox="0 0 538 276" width="538px" zoomAndPan="magnify"><defs/><g><!--cluster To Do--><g id="cluster_To Do"><rect fill="none" height="263" rx="7.5" ry="7.5" style="stroke:#181818;stroke-width:1.0;" width="159" x="7" y="7"/><text fill="#000000" font-family="sans-serif" font-size="14" font-weight="bold" lengthAdjust="spacing" textLength="47" x="63" y="21.9951">To Do</text></g><!--cluster In Progress--><g id="cluster_In Progress"><rect fill="none" height="127" rx="7.5" ry="7.5" style="stroke:#181818;stroke-width:1.0;" width="159" x="373" y="7"/><text fill="#000000" font-family="sans-serif" font-size="14" font-weight="bold" lengthAdjust="spacing" textLength="91" x="407" y="21.9951">In Progress</text></g><!--cluster Done--><g id="cluster_Done"><rect fill="none" height="263" rx="7.5" ry="7.5" style="stroke:#181818;stroke-width:1.0;" width="159" x="190" y="7"/><text fill="#000000" font-family="sans-serif" font-size="14" font-weight="bold" lengthAdjust="spacing" textLength="40" x="249.5" y="21.9951">Done</text></g><!--entity Task 1--><g id="elem_Task 1"><ellipse cx="46" cy="50.5" fill="#F1F1F1" rx="8" ry="8" style="stroke:#181818;stroke-width:0.5;"/><path d="M46,58.5 L46,85.5 M33,66.5 L59,66.5 M46,85.5 L33,100.5 M46,85.5 L59,100.5 " fill="none" style="stroke:#181818;stroke-width:0.5;"/><text fill="#000000" font-family="sans-serif" font-size="14" lengthAdjust="spacing" textLength="46" x="23" y="114.9951">Task 1</text></g><!--entity Task 2--><g id="elem_Task 2"><ellipse cx="127" cy="50.5" fill="#F1F1F1" rx="8" ry="8" style="stroke:#181818;stroke-width:0.5;"/><path d="M127,58.5 L127,85.5 M114,66.5 L140,66.5 M127,85.5 L114,100.5 M127,85.5 L140,100.5 " fill="none" style="stroke:#181818;stroke-width:0.5;"/><text fill="#000000" font-family="sans-serif" font-size="14" lengthAdjust="spacing" textLength="45" x="104.5" y="114.9951">Task 2</text></g><!--entity Task 3--><g id="elem_Task 3"><ellipse cx="46" cy="186.5" fill="#F1F1F1" rx="8" ry="8" style="stroke:#181818;stroke-width:0.5;"/><path d="M46,194.5 L46,221.5 M33,202.5 L59,202.5 M46,221.5 L33,236.5 M46,221.5 L59,236.5 " fill="none" style="stroke:#181818;stroke-width:0.5;"/><text fill="#000000" font-family="sans-serif" font-size="14" lengthAdjust="spacing" textLength="46" x="23" y="250.9951">Task 3</text></g><!--entity Task 4--><g id="elem_Task 4"><ellipse cx="493" cy="50.5" fill="#F1F1F1" rx="8" ry="8" style="stroke:#181818;stroke-width:0.5;"/><path d="M493,58.5 L493,85.5 M480,66.5 L506,66.5 M493,85.5 L480,100.5 M493,85.5 L506,100.5 " fill="none" style="stroke:#181818;stroke-width:0.5;"/><text fill="#000000" font-family="sans-serif" font-size="14" lengthAdjust="spacing" textLength="45" x="470.5" y="114.9951">Task 4</text></g><!--entity Task 5--><g id="elem_Task 5"><ellipse cx="412" cy="50.5" fill="#F1F1F1" rx="8" ry="8" style="stroke:#181818;stroke-width:0.5;"/><path d="M412,58.5 L412,85.5 M399,66.5 L425,66.5 M412,85.5 L399,100.5 M412,85.5 L425,100.5 " fill="none" style="stroke:#181818;stroke-width:0.5;"/><text fill="#000000" font-family="sans-serif" font-size="14" lengthAdjust="spacing" textLength="46" x="389" y="114.9951">Task 5</text></g><!--entity Task 6--><g id="elem_Task 6"><ellipse cx="229" cy="50.5" fill="#F1F1F1" rx="8" ry="8" style="stroke:#181818;stroke-width:0.5;"/><path d="M229,58.5 L229,85.5 M216,66.5 L242,66.5 M229,85.5 L216,100.5 M229,85.5 L242,100.5 " fill="none" style="stroke:#181818;stroke-width:0.5;"/><text fill="#000000" font-family="sans-serif" font-size="14" lengthAdjust="spacing" textLength="46" x="206" y="114.9951">Task 6</text></g><!--entity Task 7--><g id="elem_Task 7"><ellipse cx="310" cy="50.5" fill="#F1F1F1" rx="8" ry="8" style="stroke:#181818;stroke-width:0.5;"/><path d="M310,58.5 L310,85.5 M297,66.5 L323,66.5 M310,85.5 L297,100.5 M310,85.5 L323,100.5 " fill="none" style="stroke:#181818;stroke-width:0.5;"/><text fill="#000000" font-family="sans-serif" font-size="14" lengthAdjust="spacing" textLength="46" x="287" y="114.9951">Task 7</text></g><!--entity Task 8--><g id="elem_Task 8"><ellipse cx="229" cy="186.5" fill="#F1F1F1" rx="8" ry="8" style="stroke:#181818;stroke-width:0.5;"/><path d="M229,194.5 L229,221.5 M216,202.5 L242,202.5 M229,221.5 L216,236.5 M229,221.5 L242,236.5 " fill="none" style="stroke:#181818;stroke-width:0.5;"/><text fill="#000000" font-family="sans-serif" font-size="14" lengthAdjust="spacing" textLength="45" x="206.5" y="250.9951">Task 8</text></g><!--entity Task 9--><g id="elem_Task 9"><ellipse cx="310" cy="186.5" fill="#F1F1F1" rx="8" ry="8" style="stroke:#181818;stroke-width:0.5;"/><path d="M310,194.5 L310,221.5 M297,202.5 L323,202.5 M310,221.5 L297,236.5 M310,221.5 L323,236.5 " fill="none" style="stroke:#181818;stroke-width:0.5;"/><text fill="#000000" font-family="sans-serif" font-size="14" lengthAdjust="spacing" textLength="46" x="287" y="250.9951">Task 9</text></g><!--SRC=[NOmx3i9034JxFONb6mG8dpuD7KKkO2LcYH9iP0THHBaxgP2NwPvctlWuo8kCdc3wbhvJ4pQewkI_mX_KwsUG37UQd5CoxcQIF35Wgz0emf9W2xRa8rGOO1TXZsajxAl0pJGRkvSVXwZL_rgZmkN-6FUd2ES8b-tf2m00]--></g></svg>