<?xml version="1.0" encoding="us-ascii" standalone="no"?><svg xmlns="http://www.w3.org/2000/svg" xmlns:xlink="http://www.w3.org/1999/xlink" contentStyleType="text/css" height="1028px" preserveAspectRatio="none" style="width:2362px;height:1028px;background:#FFFFFF;" version="1.1" viewBox="0 0 2362 1028" width="2362px" zoomAndPan="magnify"><defs/><g><rect fill="none" height="20.9531" style="stroke:none;stroke-width:1.0;" width="2329" x="15" y="12.7451"/><ellipse cx="175.5" cy="48.6982" fill="#222222" rx="10" ry="10" style="stroke:#222222;stroke-width:1.0;"/><rect fill="#F1F1F1" height="33.9688" rx="12.5" ry="12.5" style="stroke:#181818;stroke-width:0.5;" width="216" x="67.5" y="78.6982"/><text fill="#000000" font-family="sans-serif" font-size="12" lengthAdjust="spacing" textLength="196" x="77.5" y="99.8369">Business Requirement Gathering</text><rect fill="#F1F1F1" height="33.9688" rx="12.5" ry="12.5" style="stroke:#181818;stroke-width:0.5;" width="309" x="21" y="132.667"/><text fill="#000000" font-family="sans-serif" font-size="12" lengthAdjust="spacing" textLength="289" x="31" y="153.8057">Business Requirement Document (BRD) Created</text><line style="stroke:#000000;stroke-width:1.5;" x1="15" x2="15" y1="12.7451" y2="1016.167"/><rect fill="#F1F1F1" height="33.9688" rx="12.5" ry="12.5" style="stroke:#181818;stroke-width:0.5;" width="413" x="387.5" y="186.6357"/><text fill="#000000" font-family="sans-serif" font-size="12" lengthAdjust="spacing" textLength="393" x="397.5" y="207.7744">Functional Requirement Document (FRD) Created (Based on BRD)</text><rect fill="#F1F1F1" height="33.9688" rx="12.5" ry="12.5" style="stroke:#181818;stroke-width:0.5;" width="293" x="447.5" y="240.6045"/><text fill="#000000" font-family="sans-serif" font-size="12" lengthAdjust="spacing" textLength="273" x="457.5" y="261.7432">Use Case Document Created (Based on FRD)</text><rect fill="#F1F1F1" height="33.9688" rx="12.5" ry="12.5" style="stroke:#181818;stroke-width:0.5;" width="508" x="340" y="294.5732"/><text fill="#000000" font-family="sans-serif" font-size="12" lengthAdjust="spacing" textLength="488" x="350" y="315.7119">System Requirement Specification (SRS) Created (Based on FRD and Use Cases)</text><line style="stroke:#000000;stroke-width:1.5;" x1="334" x2="334" y1="12.7451" y2="1016.167"/><rect fill="#F1F1F1" height="33.9688" rx="12.5" ry="12.5" style="stroke:#181818;stroke-width:0.5;" width="324" x="858" y="348.542"/><text fill="#000000" font-family="sans-serif" font-size="12" lengthAdjust="spacing" textLength="304" x="868" y="369.6807">Wireframes and Mockups Created (Based on SRS)</text><line style="stroke:#000000;stroke-width:1.5;" x1="852" x2="852" y1="12.7451" y2="1016.167"/><rect fill="#F1F1F1" height="33.9688" rx="12.5" ry="12.5" style="stroke:#181818;stroke-width:0.5;" width="171" x="1265" y="402.5107"/><text fill="#000000" font-family="sans-serif" font-size="12" lengthAdjust="spacing" textLength="151" x="1275" y="423.6494">Coding and Programming</text><rect fill="#F1F1F1" height="33.9688" rx="12.5" ry="12.5" style="stroke:#181818;stroke-width:0.5;" width="181" x="1260" y="456.4795"/><text fill="#000000" font-family="sans-serif" font-size="12" lengthAdjust="spacing" textLength="161" x="1270" y="477.6182">Database Schema Created</text><line style="stroke:#000000;stroke-width:1.5;" x1="1186" x2="1186" y1="12.7451" y2="1016.167"/><rect fill="#F1F1F1" height="33.9688" rx="12.5" ry="12.5" style="stroke:#181818;stroke-width:0.5;" width="125" x="1598" y="510.4482"/><text fill="#000000" font-family="sans-serif" font-size="12" lengthAdjust="spacing" textLength="105" x="1608" y="531.5869">Test Plan Created</text><rect fill="#F1F1F1" height="33.9688" rx="12.5" ry="12.5" style="stroke:#181818;stroke-width:0.5;" width="139" x="1591" y="564.417"/><text fill="#000000" font-family="sans-serif" font-size="12" lengthAdjust="spacing" textLength="119" x="1601" y="585.5557">Test Cases Created</text><rect fill="#F1F1F1" height="33.9688" rx="12.5" ry="12.5" style="stroke:#181818;stroke-width:0.5;" width="144" x="1588.5" y="618.3857"/><text fill="#000000" font-family="sans-serif" font-size="12" lengthAdjust="spacing" textLength="124" x="1598.5" y="639.5244">Test Scripts Created</text><rect fill="#F1F1F1" height="33.9688" rx="12.5" ry="12.5" style="stroke:#181818;stroke-width:0.5;" width="248" x="1536.5" y="672.3545"/><text fill="#000000" font-family="sans-serif" font-size="12" lengthAdjust="spacing" textLength="228" x="1546.5" y="693.4932">Bug Reports Generated and Resolved</text><line style="stroke:#000000;stroke-width:1.5;" x1="1513" x2="1513" y1="12.7451" y2="1016.167"/><rect fill="#F1F1F1" height="33.9688" rx="12.5" ry="12.5" style="stroke:#181818;stroke-width:0.5;" width="172" x="1841.5" y="726.3232"/><text fill="#000000" font-family="sans-serif" font-size="12" lengthAdjust="spacing" textLength="152" x="1851.5" y="747.4619">Deployment Plan Created</text><rect fill="#F1F1F1" height="33.9688" rx="12.5" ry="12.5" style="stroke:#181818;stroke-width:0.5;" width="159" x="1848" y="780.292"/><text fill="#000000" font-family="sans-serif" font-size="12" lengthAdjust="spacing" textLength="139" x="1858" y="801.4307">Release Notes Created</text><rect fill="#F1F1F1" height="33.9688" rx="12.5" ry="12.5" style="stroke:#181818;stroke-width:0.5;" width="146" x="1854.5" y="834.2607"/><text fill="#000000" font-family="sans-serif" font-size="12" lengthAdjust="spacing" textLength="126" x="1864.5" y="855.3994">User Manual Created</text><line style="stroke:#000000;stroke-width:1.5;" x1="1806" x2="1806" y1="12.7451" y2="1016.167"/><rect fill="#F1F1F1" height="33.9688" rx="12.5" ry="12.5" style="stroke:#181818;stroke-width:0.5;" width="196" x="2075" y="888.2295"/><text fill="#000000" font-family="sans-serif" font-size="12" lengthAdjust="spacing" textLength="176" x="2085" y="909.3682">Bug Fixes and Enhancements</text><rect fill="#F1F1F1" height="33.9688" rx="12.5" ry="12.5" style="stroke:#181818;stroke-width:0.5;" width="196" x="2075" y="942.1982"/><text fill="#000000" font-family="sans-serif" font-size="12" lengthAdjust="spacing" textLength="176" x="2085" y="963.3369">User Support and Assistance</text><line style="stroke:#000000;stroke-width:1.5;" x1="2047" x2="2047" y1="12.7451" y2="1016.167"/><ellipse cx="2320" cy="1006.167" fill="none" rx="10" ry="10" style="stroke:#222222;stroke-width:1.5;"/><line style="stroke:#222222;stroke-width:2.5;" x1="2313.8128" x2="2326.1872" y1="999.9798" y2="1012.3542"/><line style="stroke:#222222;stroke-width:2.5;" x1="2326.1872" x2="2313.8128" y1="999.9798" y2="1012.3542"/><line style="stroke:#000000;stroke-width:1.5;" x1="2297" x2="2297" y1="12.7451" y2="1016.167"/><line style="stroke:#000000;stroke-width:1.5;" x1="2342" x2="2342" y1="12.7451" y2="1016.167"/><line style="stroke:#181818;stroke-width:1.0;" x1="175.5" x2="175.5" y1="58.6982" y2="78.6982"/><polygon fill="#181818" points="171.5,68.6982,175.5,78.6982,179.5,68.6982,175.5,72.6982" style="stroke:#181818;stroke-width:1.0;"/><line style="stroke:#181818;stroke-width:1.0;" x1="175.5" x2="175.5" y1="112.667" y2="132.667"/><polygon fill="#181818" points="171.5,122.667,175.5,132.667,179.5,122.667,175.5,126.667" style="stroke:#181818;stroke-width:1.0;"/><line style="stroke:#181818;stroke-width:1.0;" x1="594" x2="594" y1="220.6045" y2="240.6045"/><polygon fill="#181818" points="590,230.6045,594,240.6045,598,230.6045,594,234.6045" style="stroke:#181818;stroke-width:1.0;"/><line style="stroke:#181818;stroke-width:1.0;" x1="594" x2="594" y1="274.5732" y2="294.5732"/><polygon fill="#181818" points="590,284.5732,594,294.5732,598,284.5732,594,288.5732" style="stroke:#181818;stroke-width:1.0;"/><line style="stroke:#181818;stroke-width:1.0;" x1="1350.5" x2="1350.5" y1="436.4795" y2="456.4795"/><polygon fill="#181818" points="1346.5,446.4795,1350.5,456.4795,1354.5,446.4795,1350.5,450.4795" style="stroke:#181818;stroke-width:1.0;"/><line style="stroke:#181818;stroke-width:1.0;" x1="1660.5" x2="1660.5" y1="544.417" y2="564.417"/><polygon fill="#181818" points="1656.5,554.417,1660.5,564.417,1664.5,554.417,1660.5,558.417" style="stroke:#181818;stroke-width:1.0;"/><line style="stroke:#181818;stroke-width:1.0;" x1="1660.5" x2="1660.5" y1="598.3857" y2="618.3857"/><polygon fill="#181818" points="1656.5,608.3857,1660.5,618.3857,1664.5,608.3857,1660.5,612.3857" style="stroke:#181818;stroke-width:1.0;"/><line style="stroke:#181818;stroke-width:1.0;" x1="1660.5" x2="1660.5" y1="652.3545" y2="672.3545"/><polygon fill="#181818" points="1656.5,662.3545,1660.5,672.3545,1664.5,662.3545,1660.5,666.3545" style="stroke:#181818;stroke-width:1.0;"/><line style="stroke:#181818;stroke-width:1.0;" x1="1927.5" x2="1927.5" y1="760.292" y2="780.292"/><polygon fill="#181818" points="1923.5,770.292,1927.5,780.292,1931.5,770.292,1927.5,774.292" style="stroke:#181818;stroke-width:1.0;"/><line style="stroke:#181818;stroke-width:1.0;" x1="1927.5" x2="1927.5" y1="814.2607" y2="834.2607"/><polygon fill="#181818" points="1923.5,824.2607,1927.5,834.2607,1931.5,824.2607,1927.5,828.2607" style="stroke:#181818;stroke-width:1.0;"/><line style="stroke:#181818;stroke-width:1.0;" x1="2173" x2="2173" y1="922.1982" y2="942.1982"/><polygon fill="#181818" points="2169,932.1982,2173,942.1982,2177,932.1982,2173,936.1982" style="stroke:#181818;stroke-width:1.0;"/><line style="stroke:#181818;stroke-width:1.0;" x1="175.5" x2="175.5" y1="166.6357" y2="171.6357"/><line style="stroke:#181818;stroke-width:1.0;" x1="175.5" x2="594" y1="171.6357" y2="171.6357"/><line style="stroke:#181818;stroke-width:1.0;" x1="594" x2="594" y1="171.6357" y2="186.6357"/><polygon fill="#181818" points="590,176.6357,594,186.6357,598,176.6357,594,180.6357" style="stroke:#181818;stroke-width:1.0;"/><line style="stroke:#181818;stroke-width:1.0;" x1="594" x2="594" y1="328.542" y2="333.542"/><line style="stroke:#181818;stroke-width:1.0;" x1="594" x2="1020" y1="333.542" y2="333.542"/><line style="stroke:#181818;stroke-width:1.0;" x1="1020" x2="1020" y1="333.542" y2="348.542"/><polygon fill="#181818" points="1016,338.542,1020,348.542,1024,338.542,1020,342.542" style="stroke:#181818;stroke-width:1.0;"/><line style="stroke:#181818;stroke-width:1.0;" x1="1020" x2="1020" y1="382.5107" y2="387.5107"/><line style="stroke:#181818;stroke-width:1.0;" x1="1020" x2="1350.5" y1="387.5107" y2="387.5107"/><line style="stroke:#181818;stroke-width:1.0;" x1="1350.5" x2="1350.5" y1="387.5107" y2="402.5107"/><polygon fill="#181818" points="1346.5,392.5107,1350.5,402.5107,1354.5,392.5107,1350.5,396.5107" style="stroke:#181818;stroke-width:1.0;"/><line style="stroke:#181818;stroke-width:1.0;" x1="1350.5" x2="1350.5" y1="490.4482" y2="495.4482"/><line style="stroke:#181818;stroke-width:1.0;" x1="1350.5" x2="1660.5" y1="495.4482" y2="495.4482"/><line style="stroke:#181818;stroke-width:1.0;" x1="1660.5" x2="1660.5" y1="495.4482" y2="510.4482"/><polygon fill="#181818" points="1656.5,500.4482,1660.5,510.4482,1664.5,500.4482,1660.5,504.4482" style="stroke:#181818;stroke-width:1.0;"/><line style="stroke:#181818;stroke-width:1.0;" x1="1660.5" x2="1660.5" y1="706.3232" y2="711.3232"/><line style="stroke:#181818;stroke-width:1.0;" x1="1660.5" x2="1927.5" y1="711.3232" y2="711.3232"/><line style="stroke:#181818;stroke-width:1.0;" x1="1927.5" x2="1927.5" y1="711.3232" y2="726.3232"/><polygon fill="#181818" points="1923.5,716.3232,1927.5,726.3232,1931.5,716.3232,1927.5,720.3232" style="stroke:#181818;stroke-width:1.0;"/><line style="stroke:#181818;stroke-width:1.0;" x1="1927.5" x2="1927.5" y1="868.2295" y2="873.2295"/><line style="stroke:#181818;stroke-width:1.0;" x1="1927.5" x2="2173" y1="873.2295" y2="873.2295"/><line style="stroke:#181818;stroke-width:1.0;" x1="2173" x2="2173" y1="873.2295" y2="888.2295"/><polygon fill="#181818" points="2169,878.2295,2173,888.2295,2177,878.2295,2173,882.2295" style="stroke:#181818;stroke-width:1.0;"/><line style="stroke:#181818;stroke-width:1.0;" x1="2173" x2="2173" y1="976.167" y2="981.167"/><line style="stroke:#181818;stroke-width:1.0;" x1="2173" x2="2320" y1="981.167" y2="981.167"/><line style="stroke:#181818;stroke-width:1.0;" x1="2320" x2="2320" y1="981.167" y2="996.167"/><polygon fill="#181818" points="2316,986.167,2320,996.167,2324,986.167,2320,990.167" style="stroke:#181818;stroke-width:1.0;"/><text fill="#000000" font-family="sans-serif" font-size="18" lengthAdjust="spacing" textLength="47" x="151" y="29.4531">Start</text><text fill="#000000" font-family="sans-serif" font-size="18" lengthAdjust="spacing" textLength="260" x="463" y="29.4531">System Analysis and Design</text><text fill="#000000" font-family="sans-serif" font-size="18" lengthAdjust="spacing" textLength="203" x="917.5" y="29.4531">User Interface Design</text><text fill="#000000" font-family="sans-serif" font-size="18" lengthAdjust="spacing" textLength="317" x="1191" y="29.4531">Development and Implementation</text><text fill="#000000" font-family="sans-serif" font-size="18" lengthAdjust="spacing" textLength="283" x="1518" y="29.4531">Testing and Quality Assurance</text><text fill="#000000" font-family="sans-serif" font-size="18" lengthAdjust="spacing" textLength="231" x="1811" y="29.4531">Deployment and Release</text><text fill="#000000" font-family="sans-serif" font-size="18" lengthAdjust="spacing" textLength="240" x="2052" y="29.4531">Maintenance and Support</text><text fill="#000000" font-family="sans-serif" font-size="18" lengthAdjust="spacing" textLength="35" x="2302" y="29.4531">End</text><!--SRC=[TLBDRi8m3BxtANA4Lu3Je80uCB5sqyvUQY1QwtHnWeRKXv-JmkWOd9BQdxyVfrtfmVakutXaarbWGyYi2lmAnc63vDKA_06TeVtq0I2tEgJBQ5RaOpLt21whQPPrvOazDkg9e3wnOGLKgHpPxAdB9ij0sXihlGTiom6RS0FBOKb54R7ongZcKhiE_8SkU-ZPnb2bR56RdT4G7QXHMPJZ-_F9yqMBnp6LV3cr9ezk1nglWTw5VEUWmJxenkhFqF8TsgWMYN8yOctRP2XEh9ksJlQIAs6SsqhsddfRP_V2tVJla8E7ZnY-r0TiOBZpLsH_6Ne9K1j_Ka_CmG5f5CxOLziQw3hKrrB0ssAfdMdzi3mBUzbaQvrKLqZeKhYeLY3R-jYxoB6jxUatMO4r2ht83net9iuOzMpz7nzftHiWoJBCkG4ZJq0nLP8eGnjDTRt3fVa-FyE23X4J5Vd2TiQclkp6oEylaCYweAhBaAeV]--></g></svg>